<?xml version="1.0" standalone="no"?>
<!DOCTYPE svg PUBLIC "-//W3C//DTD SVG 20010904//EN"
 "http://www.w3.org/TR/2001/REC-SVG-20010904/DTD/svg10.dtd">
<svg version="1.0" xmlns="http://www.w3.org/2000/svg"
 width="256.000000pt" height="256.000000pt" viewBox="0 0 256.000000 256.000000"
 preserveAspectRatio="xMidYMid meet">

<g transform="translate(0.000000,256.000000) scale(0.100000,-0.100000)"
fill="#000000" stroke="none">
<path d="M1145 2553 c-73 -9 -234 -47 -299 -70 -160 -58 -317 -155 -445 -278
-87 -83 -181 -198 -181 -221 0 -7 14 -23 30 -36 17 -12 30 -25 30 -29 0 -8
-80 -89 -89 -89 -3 0 -12 9 -19 20 -7 11 -16 20 -21 20 -13 0 -68 -130 -97
-228 -134 -462 -6 -945 340 -1279 387 -375 959 -468 1441 -234 500 244 792
791 710 1331 -75 496 -430 908 -900 1045 -158 46 -362 66 -500 48z m459 -165
l43 -43 -43 -42 c-23 -24 -44 -43 -47 -43 -5 0 -87 80 -87 85 0 7 76 82 83 84
5 0 28 -18 51 -41z m264 -268 l34 -39 -36 -36 -36 -36 -36 36 -36 36 34 39
c18 21 35 38 38 38 3 0 20 -17 38 -38z m-729 -518 c3 -1 -11 -18 -29 -37 l-34
-35 -28 27 c-35 33 -35 40 -1 75 l27 28 30 -27 c17 -16 33 -29 35 -31z m1281
-37 l24 -25 -28 -29 -27 -28 -28 26 -27 26 25 28 c30 33 32 33 61 2z m-937
-54 c75 -29 18 -172 -122 -311 -96 -95 -189 -152 -252 -154 -48 -1 -64 15 -63
63 3 117 208 342 362 397 45 16 45 16 75 5z m401 -20 l29 -30 -29 -29 -29 -30
-32 30 -32 31 27 28 c15 15 30 28 33 29 3 0 18 -13 33 -29z m-1651 -233 l-37
-38 -38 37 -38 37 37 38 37 38 38 -37 38 -37 -37 -38z m1851 -194 l36 -36 -37
-37 -37 -37 -38 38 -38 38 38 35 c20 19 38 35 39 35 0 0 17 -16 37 -36z m-821
-871 l-45 -44 -43 38 c-24 21 -44 41 -44 44 -1 3 18 26 42 51 l42 45 47 -45
47 -45 -46 -44z"/>
</g>
</svg>
