<?xml version="1.0" standalone="no"?>
<!DOCTYPE svg PUBLIC "-//W3C//DTD SVG 20010904//EN"
 "http://www.w3.org/TR/2001/REC-SVG-20010904/DTD/svg10.dtd">
<svg version="1.0" xmlns="http://www.w3.org/2000/svg"
 width="183.000000pt" height="275.000000pt" viewBox="0 0 183.000000 275.000000"
 preserveAspectRatio="xMidYMid meet">

<g transform="translate(0.000000,275.000000) scale(0.100000,-0.100000)"
fill="#fff" stroke="none">
<path d="M0 1375 l0 -1375 915 0 915 0 0 1375 0 1375 -915 0 -915 0 0 -1375z
m556 798 c1 -67 -1 -83 -9 -65 -10 22 -27 30 -27 13 0 -5 7 -25 15 -45 11 -25
21 -36 33 -34 11 2 16 -3 15 -15 0 -12 4 -16 13 -13 7 3 16 1 19 -4 4 -6 0
-10 -7 -10 -8 0 -19 -13 -25 -30 -6 -16 -18 -30 -26 -30 -8 0 -17 -9 -20 -20
-3 -13 -14 -20 -30 -20 -25 0 -52 -22 -40 -33 10 -11 25 -8 18 3 -3 6 -1 10 4
10 6 0 11 -9 11 -20 0 -11 -5 -20 -12 -20 -6 0 -24 -15 -39 -32 -24 -28 -28
-30 -29 -14 0 35 -22 1 -26 -41 -3 -21 -9 -51 -16 -66 -8 -21 -8 -31 1 -40 6
-6 11 -25 11 -42 0 -17 7 -41 16 -53 9 -13 13 -26 10 -29 -11 -11 24 -47 46
-48 17 0 23 -6 21 -20 -2 -27 22 -69 51 -89 15 -9 26 -22 26 -29 0 -16 24 -36
73 -62 21 -11 50 -32 65 -46 39 -39 132 -63 132 -35 0 19 -57 39 -64 23 -2 -7
-8 -2 -11 11 -7 22 -21 29 -27 13 -2 -5 -10 -2 -18 7 -13 14 -12 15 4 9 12 -5
16 -3 13 5 -2 7 -10 14 -18 14 -8 1 -20 2 -26 3 -7 0 -13 8 -13 17 0 14 3 14
15 4 27 -22 12 15 -27 69 -10 13 -15 28 -11 34 3 6 1 7 -5 3 -7 -4 -14 3 -18
19 -3 14 -12 25 -18 25 -13 0 -15 35 -2 47 4 4 12 1 17 -7 9 -12 10 -12 5 3
-3 10 1 29 10 43 18 27 13 32 -10 8 -10 -9 -16 -11 -16 -4 0 6 6 18 14 26 13
12 17 12 30 -2 15 -14 16 -14 16 5 0 11 9 25 20 31 18 10 20 8 20 -18 0 -16
-6 -35 -14 -42 -26 -21 -8 -38 41 -37 40 0 44 2 28 13 -12 9 -15 19 -9 31 7
16 8 16 11 -4 5 -25 15 -28 44 -13 13 7 19 7 19 0 0 -5 9 -10 19 -10 10 0 21
-7 25 -15 3 -8 17 -15 31 -15 17 0 24 -4 19 -11 -4 -8 3 -9 23 -5 39 9 133
-33 133 -59 0 -5 10 -19 22 -32 36 -39 11 -38 -32 1 -22 20 -45 36 -51 36 -5
0 -8 3 -6 8 3 4 -17 8 -45 10 -46 3 -48 2 -39 -17 6 -11 20 -23 31 -26 11 -3
20 -11 20 -16 0 -5 11 -26 25 -47 37 -56 36 -113 -1 -150 -33 -33 -69 -48 -79
-32 -3 5 -3 10 2 10 4 0 13 12 20 26 12 26 12 26 -7 9 -10 -9 -23 -14 -28 -11
-5 3 -20 -3 -34 -13 -33 -27 -110 -37 -161 -21 -38 11 -150 59 -186 79 -8 4
-19 15 -25 25 -6 10 -22 30 -36 45 -39 42 -60 70 -60 81 0 5 -5 12 -12 16 -7
4 -8 3 -4 -4 5 -8 2 -10 -8 -6 -9 3 -16 12 -16 18 0 22 -25 66 -35 63 -19 -7
-46 43 -60 110 -8 37 -19 88 -25 112 -6 24 -8 53 -4 64 3 11 8 41 10 66 11
130 28 174 74 195 19 8 44 30 54 48 39 65 46 81 41 86 -7 7 47 42 56 37 3 -3
14 4 24 15 10 11 14 20 9 20 -5 0 2 9 16 20 14 11 25 20 25 20 0 0 1 -39 1
-87z m144 -32 c0 -6 -4 -13 -10 -16 -5 -3 -10 1 -10 9 0 9 5 16 10 16 6 0 10
-4 10 -9z m-50 -63 c0 7 5 10 10 7 8 -5 7 -11 -1 -21 -6 -7 -15 -12 -19 -9 -5
3 -10 0 -12 -7 -3 -9 -9 -8 -21 4 -21 20 -22 32 -3 25 10 -4 12 1 9 16 -4 21
-4 21 16 -3 11 -14 21 -19 21 -12z m-413 -310 c-3 -8 -6 -5 -6 6 -1 11 2 17 5
13 3 -3 4 -12 1 -19z m243 -47 c-1 -13 -3 -13 -15 3 -19 26 -19 42 0 26 8 -7
15 -20 15 -29z m220 -44 c0 -8 -9 -22 -20 -32 -22 -20 -27 -7 -10 26 12 22 30
25 30 6z m54 -52 c-4 -8 -8 -15 -10 -15 -2 0 -4 7 -4 15 0 8 4 15 10 15 5 0 7
-7 4 -15z m-636 -176 c-3 -8 -7 -3 -11 10 -4 17 -3 21 5 13 5 -5 8 -16 6 -23z
m101 -123 c17 -33 28 -62 26 -65 -3 -2 -5 1 -5 8 0 7 -4 9 -10 6 -5 -3 -10 -3
-10 2 0 4 -11 21 -25 37 -14 17 -23 36 -20 44 3 7 5 19 5 24 0 16 5 9 39 -56z
m434 2 c6 -22 5 -22 -8 -4 -17 22 -20 40 -6 32 5 -3 11 -16 14 -28z m512 -35
c-18 -17 -16 -34 5 -41 9 -3 11 1 7 12 -8 20 -2 20 22 -1 11 -9 18 -20 15 -25
-3 -5 -12 -4 -19 2 -9 8 -15 8 -20 0 -3 -5 -1 -10 4 -10 6 0 11 -4 11 -10 0
-5 -7 -7 -15 -4 -21 8 -19 -3 6 -34 l22 -27 -6 25 c-6 23 -5 24 8 6 8 -10 12
-23 9 -28 -3 -5 -2 -8 3 -7 24 4 33 -4 39 -36 6 -34 24 -59 24 -34 0 7 2 10 5
7 3 -3 1 -17 -4 -32 -6 -14 -7 -26 -2 -26 15 0 27 -44 30 -107 2 -57 0 -63
-18 -63 -13 0 -19 -6 -19 -17 1 -10 -2 -35 -6 -55 -8 -43 4 -50 27 -16 15 24
35 20 21 -4 -5 -7 -7 -24 -6 -38 2 -22 1 -23 -8 -7 -15 24 -33 22 -25 -4 4
-12 3 -24 -1 -28 -18 -13 -46 -75 -35 -79 6 -2 11 -9 11 -17 0 -7 7 -18 15
-25 8 -7 15 -21 15 -32 0 -10 11 -30 25 -44 28 -28 32 -39 10 -31 -21 9 -28
-10 -8 -22 10 -6 12 -11 6 -11 -18 0 -16 -29 3 -37 8 -3 13 -11 10 -19 -3 -7
2 -18 10 -24 8 -7 14 -17 14 -23 0 -13 -104 -1 -108 13 -2 5 -10 10 -18 10
-17 0 -45 41 -47 69 -1 16 -6 20 -22 15 -17 -6 -18 -5 -7 9 8 9 15 35 17 59 2
30 8 44 20 46 22 5 15 35 -12 47 -23 10 -39 48 -23 53 14 5 12 29 -2 35 -8 3
-6 6 5 6 10 1 17 7 15 14 -4 17 23 78 44 101 23 25 32 69 23 114 -4 20 -8 57
-10 81 -2 24 -7 46 -12 50 -18 11 -33 50 -36 90 -1 22 -6 44 -11 48 -17 17
-36 76 -30 97 3 12 14 22 25 23 17 2 18 0 4 -14z m-667 -265 c20 -15 22 -19 7
-13 -11 4 -28 10 -37 12 -10 3 -15 9 -12 14 8 13 13 11 42 -13z m-114 -7 c3
-4 19 -11 36 -14 21 -5 28 -11 24 -21 -4 -11 -12 -13 -31 -5 -24 9 -53 32 -53
43 0 9 18 7 24 -3z m964 -27 l27 -26 -32 16 c-18 9 -33 21 -33 26 0 16 9 12
38 -16z m-982 -365 c10 -17 -13 -36 -27 -22 -12 12 -4 33 11 33 5 0 12 -5 16
-11z m694 -7 c0 -4 -12 -13 -27 -19 -28 -12 -73 -8 -73 7 0 11 57 23 70 15 5
-3 10 -1 10 5 0 6 5 8 10 5 6 -3 10 -9 10 -13z m280 -32 c0 -5 -5 -10 -11 -10
-5 0 -7 5 -4 10 3 6 8 10 11 10 2 0 4 -4 4 -10z m-40 -26 c0 -8 -4 -12 -10 -9
-5 3 -10 10 -10 16 0 5 5 9 10 9 6 0 10 -7 10 -16z"/>
<path d="M520 2040 c0 -5 5 -10 10 -10 6 0 10 5 10 10 0 6 -4 10 -10 10 -5 0
-10 -4 -10 -10z"/>
<path d="M797 1349 c4 -13 8 -18 11 -10 2 7 -1 18 -6 23 -8 8 -9 4 -5 -13z"/>
<path d="M962 1255 c0 -16 2 -22 5 -12 2 9 2 23 0 30 -3 6 -5 -1 -5 -18z"/>
</g>
</svg>
